<svg xmlns="http://www.w3.org/2000/svg" viewBox="0 0 300 125" width="300" height="125" preserveAspectRatio="xMidYMid meet">
  <rect width="100%" height="100%" fill="#000000"/>
  <path fill="#ffffff" fill-rule="evenodd" d="M193.5,32 L188,38.75 L185.5,59.75 L190.75,65.75 L200.5,65.75 L207,60 L207.5,44.5 L206.25,43 L207.75,38.5 L202.75,32 Z M191.5,64 L194.25,60 L205,60.5 L199.75,64.5 Z M189,55.75 L192.25,59.25 L190.5,63.25 L187.25,60.5 Z M198.25,47.25 L198.75,48.75 L196.5,52.25 L196,50.75 Z M200.25,43.25 L201.75,41.25 L205.75,41.5 L204.25,43.75 Z M199.25,39.75 L196.75,43.75 L196.75,40.25 Z M270.5,32.25 L261.75,32 L254.75,37.75 L251.75,32.5 L243.5,32 L236.25,38.5 L236.5,34 L235.25,32.25 L226.5,32 L224.5,34 L223.25,32.25 L214.25,32 L209.75,37.5 L209.5,45.5 L212.5,46 L216.25,52.25 L214.25,58.75 L214,66 L225.25,67 L230.25,61.5 L230.5,54.25 L228.25,52.25 L228.25,50 L231.25,44.25 L235.5,40.75 L236,44.75 L238,45.5 L237.75,55 L232.75,58.75 L233.25,67 L240.25,68.75 L248.25,67 L249,70 L256.75,72.75 L269.5,69.5 L270.25,53.5 L268.25,52.25 L268.75,41.75 L270.75,38.75 Z M268.25,68.5 L258.5,71.5 L251.75,69.5 L260.5,66 Z M250.5,63.75 L242,67.75 L235.75,66.5 L243.5,62.5 Z M215.75,64.5 L219.5,60.25 L228.75,61.25 L224.5,65.75 Z M218,55.5 L217.75,60.5 L215,62.75 L216,57.5 Z M258.5,55 L258.75,65.25 L250,68.5 L249.75,66.25 L253.5,63.75 L254,58.5 Z M241.25,54.75 L241.5,61.5 L234.25,64.75 L234.25,59.25 Z M220.25,51.25 L220.75,52.25 L219.25,52.75 Z M252.25,47.25 L253.75,49.75 L252.5,52 Z M261,46.5 L261,52.25 L256,55 L255.75,52.5 Z M215.5,41 L220.5,49 L217.75,52 L213.25,44.75 Z M243.5,39.5 L244,52 L239.25,54.25 L239,43.5 Z M258.25,37.25 L256.25,40.5 L255.75,39.25 Z M213.25,36.25 L213.5,39.25 L211,42.25 L211,38.75 Z M242.25,35.25 L242.25,39 L237.25,43 L237,40.25 Z M225.25,35.25 L225.75,38.5 L224.25,40.25 L224,36.25 Z M16.25,40.5 L17.75,42.25 L17.25,56.5 L18.25,57.5 L15.75,59.25 L16,68.75 L27,69.5 L40.75,61.75 L41.75,59.75 L45.25,61 L51.25,60.75 L56.25,58.25 L60.25,59.75 L78,59.75 L88.5,61.75 L92.75,57.75 L93,55 L105,66 L110.25,67 L113.5,64.25 L113,57 L109,51 L112,49.25 L111.75,44.75 L102.75,32.5 L97.5,32.5 L95.5,34.5 L92.25,32.25 L88.5,32.5 L87.5,37.75 L83,32.5 L70.25,32 L69.25,37 L63,31.75 L51,32 L49.75,36 L44.25,32 L38.25,32 L34,36.75 L26.75,32.5 L17.25,32.75 Z M101,60.5 L103.75,61.25 L106.75,64.75 L105.25,64.75 Z M38.25,61.5 L27.25,68 L17.5,67.75 L30.5,60 Z M104.75,60.5 L107.25,59.25 L111.5,64.5 L109.25,65.25 Z M40.25,58 L45.75,56.75 L51,59.5 L46,60 Z M73.25,55.5 L81.25,55.75 L86.25,59.75 L80.75,59.75 Z M62.5,55 L67.5,54.75 L73.5,58.5 L69,58.75 Z M53.25,55.25 L58,54.5 L63.75,58 L58.5,58 Z M86.25,53.5 L90.75,57.5 L89.25,59.75 L83.5,55.5 Z M108.25,52 L111.75,57.25 L111.5,61.75 L108,57.75 Z M45.75,55 L49.25,51.75 L50.5,55.5 L54.25,57.5 L52.5,58.25 Z M68.75,49.5 L70.25,50.5 L70.25,54.75 L68.25,53.25 Z M32.25,49 L33.25,55.5 L37.5,58.75 L39.5,58.75 L39.25,59.75 L32,57.5 Z M58.25,46 L60.5,48 L60,49 L58,48 Z M25.5,42.25 L32.75,47.5 L27,49 L26.25,53.5 L24.5,54.75 Z M103.5,42.25 L106.75,42.75 L109.5,48.75 L107,47.5 Z M65.25,42.75 L66.75,42 L69.5,44 L71.25,47.25 Z M107.5,41 L110,43.5 L110.5,46.5 Z M99.5,40 L101.25,42.75 L99,41.5 Z M91,40 L92.5,40.5 L94.75,46.75 L89,42.25 Z M77.75,39.75 L80,41.75 L79.25,48.75 L77.75,48 Z M86.5,39.25 L91.5,46.75 L91.25,56 L86.25,51.75 Z M41.5,38.25 L42.25,49.5 L40,51.25 L39.5,39.75 Z M58,38.5 L59.5,38 L60.5,39.5 L58.5,40.25 Z M67.25,37 L71,40 L70.75,43.5 L67.25,41 Z M49,37 L51.75,38.75 L51.75,48 L49.5,51 L48.25,50.25 Z M27.25,34 L33.25,38.25 L32.5,43.5 L26.5,39 Z M13.25,28.75 L12.25,73.25 L124.75,75 L124.75,74 L18.25,72.5 L13,71.25 L15.5,28.5 L101.75,30 L106.25,25 L107.5,29.75 L121,32.5 L120.5,47.75 L122.25,49 L126.25,49.25 L128.75,47.5 L128.75,33.5 L130.5,32.75 L133.5,43 L144,60.5 L143.75,63.5 L140.25,68.75 L141,71.25 L135.75,74.5 L139.25,78.5 L143.75,75.75 L144.5,79.25 L147.5,82.25 L143.75,80 L139,80.5 L132.25,78.75 L128.75,85.25 L125.75,87 L141,89 L159.25,89.25 L175,87 L164.5,85 L161.25,82.5 L163.5,79.5 L165.5,71.75 L164.25,70.75 L166,66.5 L161.75,64.75 L156.5,65 L158.75,59 L158.25,53.5 L164.75,44.25 L165.25,38 L178.25,39 L182.25,36.5 L181.5,31.75 L169.25,30 L169.25,28.75 L174.25,27.5 L180.5,28.25 L185,23.75 L188.5,29 L272.25,28.5 L273.75,30 L273.75,75.25 L272.75,76 L171.5,75.5 L273.25,77.25 L274.75,75 L274.5,27.25 L189,27.5 L186,22.25 L182,24 L179.75,26.75 L174.25,26 L172.25,27.5 L166.5,25 L152.75,27.25 L130.5,25 L129.5,24 L130.25,7 L124.5,5.25 L121.75,8.75 L121.75,19.75 L119.25,22.75 L117.25,21 L109.25,19.75 L100.75,29 L14.25,27.25 Z M139.75,86 L140.75,85 L144,85.5 L145.25,84 L148.25,87 Z M131.25,85 L133.5,82.25 L140,84.5 L133.5,86.25 Z M141.75,74.75 L140.25,76.75 L138.75,76.5 Z M159.75,69.25 L160.5,71 L156,75 L157.75,74.75 L159.25,76.75 L162.5,73.5 L161.75,77.25 L159,78.25 L158,84 L155,86.5 L148.5,87.25 L152.25,85.75 L153.5,83.5 L151,75 L154,78.25 L155.75,78 L154.75,72.75 Z M142.75,68 L143.75,67 L145,68.25 L143.5,69 Z M156.25,60 L156.75,61.5 L154,64.5 Z M144,57.25 L146,57 L146.5,58.5 L150.5,59.5 L148,62.75 L146.25,62.75 Z M139.25,49.5 L141.75,51 L145.25,50.5 L152,56.25 L147.75,55.5 L143.5,51.5 L144.25,57 L143.25,57 Z M160.5,47 L156.75,52.25 L156,49.5 Z M149.25,40 L151,40.25 L149.5,43.75 L154.25,47.75 L151.75,50.75 L149.75,48 L148.75,48 L149.25,50.25 L144.5,47.5 L147.25,41.5 Z M134.75,39.5 L139.5,44.75 L139.5,49.25 L135,42.75 Z M175.5,35 L180.25,34.75 L180.75,35.75 Z M137.25,36 L139.5,34.25 L157,36.5 L160,40.75 L155.5,45.25 L154,39.25 L149.25,38.25 L146,40.25 L144.75,44 L143.25,44.75 Z M132,33.75 L132.5,32.5 L134.5,33.25 Z M109.5,28.25 L110.5,27.25 L124.75,29.75 L124,27.5 L130.75,28 L130.75,26.5 L180.5,33.5 L174.25,34 L174.75,35.25 L154.5,32 L128,29.75 L127.25,36.25 L125.75,38.25 L126.25,46.5 L124.5,47 L123.5,46.25 L124.75,44.5 L124.25,35.25 L125.5,35.5 L126.25,32.25 L124.5,33.75 L123,30.75 Z M168.25,27.5 L167.75,28.75 L157.25,28 L164,26 Z M110,23.5 L117.25,24.5 L115.25,25 L116,26.5 L110.5,26 Z M129.5,26.75 L121.75,25.5 L124,25.25 L125.25,23.25 L126.5,24.75 L127.75,22.5 Z M109,21.5 L112.25,20.75 L113.25,22 Z M126.25,6.5 L128.5,9.25 L128.5,14 L127.5,11.25 L126.5,11.5 L125.25,19 L125,7.5 Z"/>
</svg>
